# xmcd CD database file
#
# Track frame offsets:
#	150
#	20892
#	39805
#	62480
#	79812
#	87845
#	111130
#	117232
#	137130
#	155190
#	176632
#	203115
#	220555
#	239090
#
# Disc length: 3491 seconds
#
# Revision: 0
# Processed by: cddbd v1.5.1PL0 Copyright (c) Steve Scherf et al.
# Submitted via: CDex 1.51
#
DISCID=c10da10e
DTITLE=Varios - Monografie vol. 6 - World Music
DYEAR=1900
DGENRE=New Age
TTITLE0=The ark
TTITLE1=Stravagario
TTITLE2=Abangoma
TTITLE3=Passing storm
TTITLE4=Valse a Rosental
TTITLE5=Natureliche Liebe
TTITLE6=Carta pro Airto
TTITLE7=Imaginary island
TTITLE8=Hola Isela
TTITLE9=Pashtu Ghazal
TTITLE10=After dinner
TTITLE11=Talking to the moon
TTITLE12=Capilonga
TTITLE13=Wipala
EXTD=
EXTT0=
EXTT1=
EXTT2=
EXTT3=
EXTT4=
EXTT5=
EXTT6=
EXTT7=
EXTT8=
EXTT9=
EXTT10=
EXTT11=
EXTT12=
EXTT13=
PLAYORDER=
